<?xml version="1.0" standalone="no"?>
<!DOCTYPE svg PUBLIC "-//W3C//DTD SVG 20010904//EN"
 "http://www.w3.org/TR/2001/REC-SVG-20010904/DTD/svg10.dtd">
<svg version="1.0" xmlns="http://www.w3.org/2000/svg"
 width="1024.000000pt" height="1024.000000pt" viewBox="0 0 1024.000000 1024.000000"
 preserveAspectRatio="xMidYMid meet">
<metadata>
Created by potrace 1.11, written by Peter Selinger 2001-2013
</metadata>
<g transform="translate(0.000000,1024.000000) scale(0.100000,-0.100000)"
fill="#000000" stroke="none">
<path d="M2484 7918 c12 -71 119 -1319 114 -1324 -3 -3 -52 0 -108 6 -60 6
-367 10 -741 10 l-639 0 0 -1480 0 -1480 370 0 370 0 2 508 3 507 360 6 c301
6 373 10 439 25 74 18 80 21 90 51 6 17 13 34 16 37 3 3 45 -441 94 -987 48
-546 91 -1005 95 -1021 l7 -30 1039 -293 c572 -162 1047 -294 1055 -295 19 -2
2052 582 2064 593 8 7 115 1158 116 1242 l0 27 358 0 357 0 95 -265 95 -265
407 0 c225 0 408 3 408 7 0 21 -1106 2941 -1111 2935 -13 -14 -382 -957 -381
-972 1 -8 69 -204 152 -434 82 -231 150 -423 150 -428 0 -8 -463 -12 -471 -4
-3 4 256 3014 284 3304 l6 52 -2550 0 -2550 0 5 -32z m4600 -850 c-23 -249
-43 -454 -43 -455 -1 -2 -105 -4 -232 -5 l-232 -3 -388 -910 c-213 -500 -396
-926 -405 -945 l-16 -35 -287 945 -287 945 -72 3 -72 3 0 454 0 455 1038 0
1038 0 -42 -452z m-4774 -1049 c128 -27 209 -88 256 -192 39 -87 46 -233 15
-335 -38 -124 -109 -192 -241 -228 -52 -14 -106 -18 -275 -18 l-210 -1 -3 385
c-1 212 0 391 3 399 5 12 38 13 203 8 108 -3 222 -11 252 -18z m4521 -1738
c-61 -662 -112 -1205 -115 -1208 -3 -3 -377 -110 -833 -237 l-828 -233 -3 533
c-1 293 -1 776 0 1073 l3 541 171 -548 171 -547 394 -3 394 -2 375 930 c206
512 376 925 378 918 1 -7 -47 -555 -107 -1217z"/>
</g>
</svg>
